<svg xmlns="http://www.w3.org/2000/svg" viewBox="0 0 512 408.73"><defs><style>.cls-1{fill:#485f84;}</style></defs><title>hide</title><g id="Layer_2" data-name="Layer 2"><g id="Capa_1" data-name="Capa 1"><path class="cls-1" d="M508.74,194.41C504.17,188.15,395.19,41.2,256,41.2S7.82,188.15,3.25,194.4a16.9,16.9,0,0,0,0,19.92C7.82,220.58,116.81,367.53,256,367.53s248.17-147,252.75-153.2A16.88,16.88,0,0,0,508.74,194.41ZM256,333.77c-102.53,0-191.33-97.53-217.62-129.42C64.63,172.44,153.25,75,256,75c102.52,0,191.32,97.52,217.62,129.42C447.36,236.29,358.75,333.77,256,333.77Z"/><path class="cls-1" d="M256,103.09A101.27,101.27,0,1,0,357.27,204.37,101.39,101.39,0,0,0,256,103.09Zm0,168.79a67.52,67.52,0,1,1,67.52-67.52A67.59,67.59,0,0,1,256,271.88Z"/><rect class="cls-1" x="-37.08" y="192.71" width="586.16" height="23.32" rx="10.54" ry="10.54" transform="translate(-70.56 229.99) rotate(-43.09)"/></g></g></svg>