<svg xmlns="http://www.w3.org/2000/svg" viewBox="0 0 512 326.33"><defs><style>.cls-1{fill:#485f84;}</style></defs><title>unhide</title><g id="Layer_2" data-name="Layer 2"><g id="Capa_1" data-name="Capa 1"><path class="cls-1" d="M508.74,153.21C504.17,146.95,395.19,0,256,0S7.82,146.95,3.25,153.2a16.9,16.9,0,0,0,0,19.92C7.82,179.38,116.81,326.33,256,326.33s248.17-147,252.75-153.2A16.88,16.88,0,0,0,508.74,153.21ZM256,292.57C153.47,292.57,64.67,195,38.38,163.15,64.63,131.24,153.25,33.76,256,33.76c102.52,0,191.32,97.52,217.62,129.42C447.36,195.09,358.75,292.57,256,292.57Z"/><path class="cls-1" d="M256,61.89A101.27,101.27,0,1,0,357.27,163.16,101.39,101.39,0,0,0,256,61.89Zm0,168.79a67.52,67.52,0,1,1,67.52-67.52A67.59,67.59,0,0,1,256,230.68Z"/></g></g></svg>