<svg xmlns="http://www.w3.org/2000/svg" viewBox="0 0 37 37"><defs><style>.cls-1{fill:#334055;}.cls-2{fill:#fff;}.cls-3{fill:none;stroke:#334055;stroke-linecap:round;stroke-miterlimit:10;stroke-width:0.85px;}</style></defs><title>Declined</title><g id="Layer_2" data-name="Layer 2"><g id="Layer_1-2" data-name="Layer 1"><g id="Group_5742" data-name="Group 5742"><g id="Group_5455" data-name="Group 5455"><g id="Group_5440" data-name="Group 5440"><g id="Group_2469" data-name="Group 2469"><path id="Path_2117" data-name="Path 2117" class="cls-1" d="M18.5,0A18.5,18.5,0,1,1,0,18.5,18.5,18.5,0,0,1,18.5,0Z"/></g></g></g><g id="Group_5542" data-name="Group 5542"><g id="delivery-avatar-smartphone-mobile-money"><g id="Group_5540" data-name="Group 5540"><path id="Path_5216" data-name="Path 5216" class="cls-2" d="M21.22,7.53H10.27A1.5,1.5,0,0,0,8.78,9V26.43a1.5,1.5,0,0,0,1.49,1.49H21.22a1.5,1.5,0,0,0,1.49-1.49V9A1.5,1.5,0,0,0,21.22,7.53Zm.5,18.91a.5.5,0,0,1-.5.5H10.27a.5.5,0,0,1-.5-.5h0V23H21.72Zm0-4.48H9.77V10.51H21.72Zm0-12.44H9.77V9a.5.5,0,0,1,.5-.5H21.22a.5.5,0,0,1,.5.5h0Z"/><path id="Path_5217" data-name="Path 5217" class="cls-2" d="M15.75,23.45a1.49,1.49,0,1,0,1.49,1.49,1.49,1.49,0,0,0-1.49-1.49Zm0,2a.5.5,0,1,1,.5-.5.5.5,0,0,1-.5.5Z"/><path id="Path_5218" data-name="Path 5218" class="cls-2" d="M15.75,11.51A4.48,4.48,0,1,0,20.22,16a4.48,4.48,0,0,0-4.48-4.48Zm0,8A3.48,3.48,0,1,1,19.23,16a3.48,3.48,0,0,1-3.48,3.48Z"/><path id="Path_5219" data-name="Path 5219" class="cls-2" d="M17.74,17a1.5,1.5,0,0,1-1.49,1.49V19h-1v-.5A1.5,1.5,0,0,1,13.76,17h1a.5.5,0,0,0,.5.5h1a.5.5,0,0,0,0-1h-1a1.49,1.49,0,0,1,0-3h0V13h1v.5A1.5,1.5,0,0,1,17.74,15h-1a.5.5,0,0,0-.5-.5h-1a.5.5,0,0,0,0,1h1A1.5,1.5,0,0,1,17.74,17Z"/><circle id="Ellipse_1169" data-name="Ellipse 1169" class="cls-2" cx="23.46" cy="24.69" r="4.74"/></g></g><g id="Group_5741" data-name="Group 5741"><line id="line" class="cls-3" x1="25.35" y1="26.56" x2="21.36" y2="22.57"/><line id="line-2" class="cls-3" x1="21.34" y1="26.56" x2="25.33" y2="22.57"/></g></g></g></g></g></svg>