<svg xmlns="http://www.w3.org/2000/svg" viewBox="0 0 37 37"><defs><style>.cls-1{fill:#334055;}.cls-2{fill:#fff;}</style></defs><title>deposite</title><g id="Layer_2" data-name="Layer 2"><g id="Layer_1-2" data-name="Layer 1"><g id="Group_5677" data-name="Group 5677"><g id="Group_5440" data-name="Group 5440"><g id="Group_2469" data-name="Group 2469"><path id="Path_2117" data-name="Path 2117" class="cls-1" d="M18.5,0A18.5,18.5,0,1,1,0,18.5,18.5,18.5,0,0,1,18.5,0Z"/></g></g><g id="Group_5454" data-name="Group 5454"><g id="wallet"><path id="Path_2123" data-name="Path 2123" class="cls-2" d="M27.48,15.09h-.24V12.77A1.76,1.76,0,0,0,25.49,11H12.74A2.72,2.72,0,0,0,10,13.46c0,.1,0-.77,0,12.61a2.72,2.72,0,0,0,2.71,2.71H27.48A1.76,1.76,0,0,0,29.24,27V16.84A1.76,1.76,0,0,0,27.48,15.09ZM12.74,12.22H25.48a.55.55,0,0,1,.55.55v2.32H12.74a1.51,1.51,0,0,1-1.51-1.44,1.51,1.51,0,0,1,1.51-1.43ZM27.48,27.57H12.74a1.51,1.51,0,0,1-1.51-1.51V15.84a2.7,2.7,0,0,0,1.51.46H27.48a.55.55,0,0,1,.55.55v2.45H23.49a2.8,2.8,0,0,0,0,5.61H28V27a.55.55,0,0,1-.55.55ZM28,23.69H23.49a1.6,1.6,0,1,1,0-3.19H28Z"/><circle id="Ellipse_130" data-name="Ellipse 130" class="cls-2" cx="23.71" cy="22.09" r="0.87"/></g><circle id="Ellipse_1166" data-name="Ellipse 1166" class="cls-2" cx="12.32" cy="13.26" r="4.8"/><g id="Group_5562" data-name="Group 5562"><rect id="Rectangle_1892" data-name="Rectangle 1892" class="cls-1" x="9.27" y="12.83" width="6.1" height="0.87" rx="0.44" ry="0.44"/></g></g></g></g></g></svg>